<svg xmlns="http://www.w3.org/2000/svg" viewBox="0 0 512 512" width="512" height="512">
  <!-- transparent background; aperture enlarged to ~fill the frame -->
  <g transform="translate(256,256) scale(1.46) translate(-256,-256)" stroke-linejoin="round">
    <path d="M408,256 L332,387.6 L256,320 L311.4,288 Z" fill="#6e7da8"/>
    <path d="M332,387.6 L180,387.6 L200.6,288 L256,320 Z" fill="#49567c"/>
    <path d="M180,387.6 L104,256 L200.6,224 L200.6,288 Z" fill="#6e7da8"/>
    <path d="M104,256 L180,124.4 L256,192 L200.6,224 Z" fill="#49567c"/>
    <path d="M180,124.4 L332,124.4 L311.4,224 L256,192 Z" fill="#6e7da8"/>
    <path d="M332,124.4 L408,256 L311.4,288 L311.4,224 Z" fill="#49567c"/>
    <path d="M311.4,288 L256,320 L200.6,288 L200.6,224 L256,192 L311.4,224 Z" fill="#20263a"/>
  </g>
</svg>
